<svg width="24" height="24" viewBox="0 0 24 24" fill="none" xmlns="http://www.w3.org/2000/svg">
<path d="M13.3916 2.84961C14.7537 2.84961 15.866 2.84859 16.7412 2.96582C17.6418 3.08653 18.4256 3.34774 19.0518 3.97168C19.577 4.49512 19.8444 5.12999 19.9893 5.85059C20.254 6.00538 20.5003 6.1937 20.7285 6.42188C21.4547 7.14801 21.7718 8.06141 21.9209 9.14844L21.9746 9.625L21.9785 9.7168C21.9749 10.173 21.6261 10.5611 21.1621 10.6045C20.6675 10.6503 20.2288 10.2866 20.1826 9.79199C20.0753 8.64378 19.8428 8.08111 19.4561 7.69434C19.1142 7.35264 18.6347 7.13153 17.7363 7.01074C16.8118 6.88649 15.5867 6.88477 13.833 6.88477H10.166C8.41244 6.88477 7.18716 6.88645 6.2627 7.01074C5.36438 7.13158 4.88477 7.35253 4.54297 7.69434C4.20122 8.03617 3.98019 8.51569 3.85938 9.41406C3.77493 10.0422 3.74941 10.8091 3.74024 11.7861L3.8457 11.6943C5.03756 10.6515 6.83419 10.7113 7.9541 11.8311L11.8867 15.7627C12.2074 16.0833 12.712 16.1268 13.083 15.8662L13.3564 15.6748C14.7485 14.6965 16.6317 14.8101 17.8965 15.9482L20.0195 17.8584C20.0667 17.6723 20.1072 17.4617 20.1396 17.2207C20.2639 16.2962 20.2666 15.0711 20.2666 13.3174C20.2668 12.8207 20.6694 12.4183 21.166 12.418C21.663 12.418 22.0662 12.8205 22.0664 13.3174C22.0664 15.0204 22.068 16.3885 21.9238 17.4609C21.7762 18.5592 21.4606 19.4818 20.7285 20.2139C19.9966 20.9455 19.0745 21.2615 17.9766 21.4092C16.9042 21.5533 15.5359 21.5508 13.833 21.5508H10.166C8.46349 21.5508 7.09563 21.5533 6.02344 21.4092C4.92538 21.2615 4.00247 20.9457 3.27051 20.2139C2.53856 19.4818 2.22285 18.5591 2.0752 17.4609C1.93103 16.3886 1.93262 15.0204 1.93262 13.3174C1.93262 11.6147 1.93108 10.2471 2.0752 9.17481C2.22285 8.0766 2.53856 7.15391 3.27051 6.42188C3.44514 6.24724 3.63103 6.09643 3.82715 5.96582C3.96622 5.19751 4.23414 4.52285 4.78711 3.97168C5.41336 3.34762 6.1979 3.08652 7.09863 2.96582C7.9738 2.8486 9.08619 2.84961 10.4482 2.84961H13.3916ZM6.68164 13.1035C6.23181 12.6539 5.50994 12.63 5.03125 13.0488L3.73535 14.1816C3.73884 15.4861 3.75663 16.4562 3.85938 17.2207C3.98014 18.119 4.20137 18.5986 4.54297 18.9404C4.88478 19.2822 5.36436 19.5042 6.2627 19.625C7.18716 19.7493 8.41244 19.751 10.166 19.751H13.833C15.5867 19.751 16.8118 19.7492 17.7363 19.625C18.2603 19.5546 18.6409 19.4476 18.9355 19.3047L16.6924 17.2861C16.0513 16.7094 15.0971 16.6516 14.3916 17.1475L14.1182 17.3389C13.0315 18.1024 11.5524 17.9753 10.6133 17.0361L6.68164 13.1035ZM17.042 7.83398C18.2983 7.83416 19.3174 8.85304 19.3174 10.1094C19.3174 11.3657 18.2983 12.3846 17.042 12.3848C15.7855 12.3848 14.7666 11.3658 14.7666 10.1094C14.7666 8.85293 15.7855 7.83398 17.042 7.83398ZM17.042 9.63477C16.7797 9.63477 16.5674 9.84704 16.5674 10.1094C16.5674 10.3717 16.7797 10.584 17.042 10.584C17.3042 10.5838 17.5166 10.3716 17.5166 10.1094C17.5166 9.84715 17.3042 9.63494 17.042 9.63477ZM10.4482 4.65039C9.03536 4.65039 8.06481 4.6515 7.33692 4.74902C6.66386 4.83926 6.32273 4.99868 6.08789 5.21875C7.15034 5.08309 8.49719 5.08398 10.166 5.08398H13.833C15.4063 5.08398 16.694 5.08379 17.7266 5.19727C17.4924 4.98861 17.1525 4.83619 16.502 4.74902C15.7741 4.65153 14.8044 4.65039 13.3916 4.65039H10.4482Z" fill="white"/>
</svg>
