<svg width="24" height="24" viewBox="0 0 24 24" fill="none" xmlns="http://www.w3.org/2000/svg">
<path d="M13.1043 2.32098L13.0284 3.16014C13.1047 2.32121 13.1053 2.32144 13.1058 2.32149H13.1094C13.1112 2.32166 13.1134 2.32179 13.1155 2.322C13.1196 2.32241 13.1242 2.32297 13.1293 2.32353C13.1396 2.32465 13.1521 2.32628 13.1665 2.32811C13.1953 2.3318 13.2325 2.337 13.277 2.34442C13.366 2.35925 13.4855 2.38264 13.6322 2.41931C13.9259 2.49276 14.3283 2.61912 14.8142 2.83507C15.7887 3.26817 17.0853 4.05552 18.5082 5.47842C19.9311 6.90134 20.7184 8.19789 21.1515 9.17237C21.3675 9.65838 21.4938 10.0611 21.5673 10.3549C21.6039 10.5016 21.6274 10.6211 21.6422 10.7101C21.6496 10.7545 21.6548 10.7913 21.6585 10.8201C21.6603 10.8345 21.6619 10.847 21.6631 10.8573C21.6636 10.8624 21.6642 10.867 21.6646 10.8711C21.6648 10.8732 21.6649 10.8754 21.6651 10.8772C21.6652 10.8781 21.665 10.8789 21.6651 10.8797L21.6656 10.8813C21.665 10.8819 21.638 10.8846 20.6262 10.9765C20.5459 10.9838 20.4719 10.9907 20.4036 10.9969L21.6656 10.8823C21.7177 11.4561 21.2948 11.9637 20.721 12.016C20.1829 12.0649 19.7029 11.696 19.6021 11.1768L19.5873 11.0734C19.5874 11.074 19.5873 11.0748 19.5873 11.0754C19.5874 11.0767 19.5877 11.0779 19.5878 11.079C19.588 11.0811 19.5882 11.0829 19.5883 11.0841C19.5886 11.0861 19.5885 11.0864 19.5883 11.0851C19.5879 11.0819 19.5867 11.071 19.5837 11.053C19.5778 11.017 19.5653 10.9521 19.5425 10.8609C19.4969 10.6787 19.4092 10.3909 19.2444 10.0202C18.9159 9.28105 18.2753 8.19716 17.0326 6.95447C15.7899 5.71176 14.7061 5.07071 13.9669 4.74217C13.5961 4.57736 13.3079 4.48967 13.1257 4.44411C13.0346 4.42134 12.9696 4.40883 12.9336 4.40284C12.9161 4.39992 12.9054 4.39869 12.902 4.39825H12.903C12.9041 4.39837 12.9057 4.39857 12.9076 4.39876C12.9087 4.39887 12.9099 4.39915 12.9112 4.39927H12.9122C12.3401 4.34544 11.9187 3.83884 11.9706 3.26612C12.0228 2.69227 12.5305 2.26894 13.1043 2.32098Z" fill="white"/>
<path d="M16.4496 10.6298L16.4501 10.6304C16.4503 10.631 16.4504 10.6318 16.4506 10.6324C16.4509 10.6336 16.4513 10.6349 16.4516 10.636C16.4522 10.638 16.4526 10.6399 16.4531 10.6416C16.4537 10.6433 16.4543 10.6449 16.4547 10.6461C16.4515 10.6375 16.4445 10.6199 16.4333 10.5937C16.4063 10.5308 16.3536 10.418 16.2616 10.2625C16.0779 9.95215 15.7357 9.46556 15.1284 8.85827C14.5212 8.2511 14.0345 7.90931 13.7242 7.72563C13.5688 7.63368 13.4564 7.58037 13.3935 7.55342C13.3621 7.53993 13.3426 7.53317 13.3365 7.531C13.3334 7.52992 13.3339 7.52986 13.3375 7.531C13.3393 7.53156 13.3418 7.53254 13.3451 7.53355C13.3468 7.53405 13.3487 7.53447 13.3507 7.53507C13.3518 7.53539 13.3531 7.53575 13.3543 7.53609C13.3549 7.53627 13.3557 7.53642 13.3563 7.5366L13.3568 7.53711L13.3574 7.5366C12.8037 7.37795 12.4832 6.80089 12.6415 6.24703C12.7999 5.69303 13.3775 5.37236 13.9316 5.53066L13.6671 6.45542C13.9314 5.53056 13.9321 5.53052 13.9326 5.53066L13.9336 5.53117C13.9342 5.53134 13.935 5.5315 13.9356 5.53168C13.937 5.53207 13.9383 5.53278 13.9397 5.53321C13.9427 5.53408 13.946 5.53473 13.9494 5.53575C13.9563 5.53784 13.9642 5.54064 13.9728 5.5434C13.99 5.54889 14.0107 5.55534 14.0345 5.56378C14.0822 5.58069 14.1428 5.60399 14.2154 5.63511C14.3608 5.69743 14.5538 5.79155 14.787 5.92961C15.2542 6.20609 15.8784 6.65721 16.604 7.38273C17.3295 8.10823 17.7806 8.7325 18.0571 9.19965C18.1951 9.43292 18.2893 9.6259 18.3516 9.77132C18.3827 9.84394 18.406 9.90452 18.4229 9.95219C18.4314 9.97601 18.4383 9.99663 18.4438 10.0138C18.4466 10.0225 18.4488 10.0304 18.4509 10.0373C18.452 10.0407 18.4531 10.044 18.454 10.047C18.4544 10.0484 18.4546 10.0502 18.455 10.0515C18.4552 10.0522 18.4553 10.053 18.4555 10.0536L18.456 10.0546C18.4551 10.0554 18.4232 10.0647 17.4528 10.342C17.3808 10.3625 17.3141 10.3818 17.2521 10.3995L18.456 10.0556C18.6142 10.6096 18.2936 11.1868 17.7397 11.3452C17.1859 11.5034 16.6083 11.1833 16.4496 10.6298Z" fill="white"/>
<path d="M4.8582 4.08857C6.12724 2.74661 8.22889 3.00791 9.26089 4.47376L10.1938 5.79747C10.314 5.95238 10.4208 6.10895 10.5168 6.26571L10.6157 6.43283L10.6498 6.49754C11.1761 7.58958 11.044 8.95881 10.1693 9.89343L10.1699 9.89394L10.015 10.0651C10.0144 10.0912 10.0153 10.1288 10.0226 10.1788C10.0668 10.4796 10.3251 11.2424 11.5781 12.5684H11.5787C12.844 13.8978 13.5548 14.149 13.7991 14.1886C13.8084 14.1901 13.8172 14.1902 13.8251 14.1912L13.8572 14.156C14.0412 13.949 14.2332 13.77 14.4273 13.6083L14.4824 13.565C15.3204 12.9568 16.4169 12.8646 17.357 13.3163L17.5425 13.4141L17.5471 13.4167L18.8473 14.1682C19.0905 14.2924 19.3241 14.4369 19.5413 14.5947L19.7629 14.7649L19.823 14.8173C20.9933 15.9204 21.1605 17.8725 19.983 19.1202L19.9784 19.1247L18.8417 20.3139L18.693 20.4724C18.6454 20.5212 18.6007 20.5657 18.5615 20.6049C18.5539 20.6125 18.5459 20.6199 18.5381 20.6273C18.1195 21.0205 17.5545 21.3529 16.8572 21.4165L16.8577 21.417C16.8543 21.4174 16.8509 21.4172 16.8475 21.4175L16.846 21.4181L16.8455 21.4175C16.2139 21.4787 15.2636 21.4959 14.1033 21.2458C13.54 21.1244 13.1819 20.5695 13.3033 20.0062C13.4248 19.4429 13.9797 19.0844 14.543 19.2058C15.4574 19.4028 16.1898 19.3859 16.6534 19.3403L16.6651 19.3392C16.7862 19.3287 16.9319 19.2694 17.0997 19.1146C17.1758 19.0384 17.2341 18.9798 17.2903 18.9174C17.2972 18.9097 17.3045 18.9024 17.3117 18.895L18.4667 17.6854C18.7882 17.3424 18.7819 16.7318 18.4153 16.3606C18.2454 16.2272 18.0616 16.1082 17.8777 16.0162C17.8589 16.0068 17.8404 15.9967 17.8222 15.9862L16.5071 15.226L16.4547 15.1985C16.1993 15.075 15.93 15.104 15.7266 15.2423C15.6125 15.3396 15.5106 15.4379 15.4173 15.5429C15.4143 15.5463 15.4112 15.5497 15.4081 15.5531L15.2196 15.7594C15.2153 15.7642 15.2108 15.769 15.2064 15.7737L14.4487 15.0558C15.2062 15.7734 15.2053 15.7747 15.2043 15.7757L15.1982 15.7818C15.1955 15.7846 15.1929 15.7876 15.1901 15.7905C15.1842 15.7964 15.1779 15.8029 15.1712 15.8094C15.158 15.8222 15.1428 15.8356 15.1264 15.8501C15.0933 15.8792 15.0535 15.9116 15.0066 15.9449C14.9126 16.0117 14.7906 16.0828 14.6393 16.1426C14.3281 16.2655 13.9333 16.3245 13.4649 16.2486C12.5603 16.1019 11.4581 15.4689 10.0669 14.0072L10.0644 14.0047C8.6721 12.5322 8.09123 11.3883 7.95807 10.4819C7.88985 10.0173 7.94245 9.63012 8.05131 9.32481C8.10459 9.17537 8.16832 9.05341 8.22964 8.95797C8.2602 8.9104 8.29006 8.86938 8.31727 8.83517C8.33084 8.81812 8.34388 8.80266 8.35599 8.78881C8.36197 8.78197 8.36776 8.77552 8.37332 8.76945C8.37415 8.76854 8.37504 8.76728 8.37586 8.76639L8.62094 8.49533L8.64081 8.47393C8.87328 8.23019 8.95302 7.81443 8.78245 7.43249C8.70108 7.29306 8.61923 7.16993 8.53127 7.05851C8.51961 7.04373 8.50848 7.02855 8.49764 7.01316L7.55504 5.6757L7.55453 5.67519C7.22205 5.20282 6.6671 5.21292 6.37451 5.52233C5.97853 5.94099 5.31817 5.95955 4.89947 5.56361C4.48085 5.16768 4.46239 4.50728 4.8582 4.08857ZM3.53195 6.7793C4.07143 6.7504 4.5372 7.13669 4.61873 7.65922L4.62994 7.76571L4.64879 8.02403C4.77803 9.41405 5.46307 12.2621 8.65915 15.6356C9.48959 16.5031 10.2929 17.1681 11.0569 17.6864L11.3815 17.8999L11.4691 17.9615C11.8847 18.2886 11.9929 18.8841 11.7035 19.3403C11.4139 19.7963 10.8292 19.9515 10.3563 19.7148L10.2636 19.6618L9.88402 19.4131C8.99525 18.8101 8.08036 18.0494 7.15151 17.0791L7.14794 17.0755C3.61532 13.3486 2.74367 10.0585 2.57152 8.22427L2.54604 7.87729L2.54553 7.7703C2.57075 7.2421 2.99256 6.80831 3.53195 6.7793ZM9.90949 10.1818C9.90639 10.1852 9.90347 10.1887 9.90032 10.192C9.90064 10.1917 9.90173 10.1906 9.90236 10.19C9.90361 10.1886 9.90471 10.1872 9.90593 10.1859C9.90716 10.1846 9.90829 10.1831 9.90949 10.1818ZM9.91306 10.1782L9.91866 10.1721C9.91575 10.1754 9.91245 10.1786 9.90949 10.1818C9.91064 10.1806 9.91193 10.1795 9.91306 10.1782Z" fill="white"/>
</svg>
