<svg width="18" height="20" viewBox="0 0 18 20" fill="none" xmlns="http://www.w3.org/2000/svg">
<path d="M9.0258 9.78134C11.228 9.78134 13.2718 10.255 14.8008 11.0703C16.2866 11.8628 17.527 13.1276 17.5271 14.7812C17.5271 14.93 17.5265 15.0867 17.524 15.2421L15.525 15.2102C15.5272 15.0738 15.5271 14.9332 15.5271 14.7815C15.5271 14.2261 15.0882 13.4909 13.8598 12.8357C12.674 12.2033 10.9665 11.7814 9.02613 11.7813C7.08573 11.7813 5.37861 12.203 4.19277 12.8354C2.96415 13.4906 2.52528 14.2257 2.52514 14.7812C2.52514 15.9656 2.57865 16.4358 3.07428 16.8185C3.37102 17.0475 3.90382 17.2981 4.87778 17.4851C5.8462 17.6709 7.1834 17.7813 9.02612 17.7813C11.0843 17.7813 12.5081 17.6434 13.4911 17.4185C14.0295 17.2954 14.5659 17.6325 14.6891 18.1709C14.812 18.7092 14.475 19.2448 13.9367 19.3679C12.7443 19.6406 11.1515 19.7813 9.02644 19.7813C7.1188 19.7813 5.64233 19.6688 4.50116 19.4498C3.36599 19.2319 2.49298 18.8959 1.85209 18.4011C0.472532 17.336 0.525142 15.8063 0.525144 14.7815C0.525144 13.1277 1.76599 11.8629 3.25194 11.0705C4.7808 10.2552 6.82383 9.78137 9.0258 9.78134ZM17.524 15.2421C17.5151 15.7943 17.0603 16.2351 16.5081 16.2262C15.9561 16.2171 15.5163 15.7621 15.525 15.2102L17.524 15.2421ZM9.02607 0.00302313C11.5986 0.00305334 13.7763 1.99291 13.7765 4.55829C13.7765 7.12391 11.5987 9.11435 9.02602 9.11435C6.45345 9.11435 4.27575 7.12454 4.27556 4.55909C4.27556 1.99347 6.45338 0.00302313 9.02607 0.00302313ZM9.02639 2.00302C7.45647 2.00302 6.27556 3.19684 6.27556 4.55876C6.27557 5.92058 7.45594 7.11419 9.0257 7.11435C10.5956 7.11435 11.7765 5.92053 11.7765 4.55861C11.7765 3.19686 10.5961 2.00322 9.02639 2.00302Z" fill="white"/>
</svg>
