<svg width="24" height="24" viewBox="0 0 24 24" fill="none" xmlns="http://www.w3.org/2000/svg">
<path d="M13.1304 3.20776C13.8102 2.02924 15.3614 1.64758 16.5894 2.35522L19.4234 3.99097C20.0045 4.32611 20.4333 4.86057 20.6255 5.49097C20.8271 6.14719 20.752 6.82926 20.4146 7.41284L20.354 7.51831C19.8501 8.39019 18.8722 8.82593 17.9019 8.70874L16.6978 10.7947C17.7969 11.9267 18.0847 13.6354 17.2974 15.0017L16.5122 16.3445C16.2216 16.8437 15.5798 17.01 15.0806 16.7195C14.5814 16.4289 14.415 15.7871 14.7056 15.2878L15.4878 13.95C15.8698 13.2891 15.5726 12.3934 14.8228 11.9597C14.3236 11.6714 14.1478 11.0296 14.4361 10.5281L16.5074 6.93921C16.6479 6.69797 16.8777 6.52227 17.147 6.4519C17.4164 6.38162 17.7049 6.42175 17.9439 6.56226C18.1641 6.68879 18.4384 6.64869 18.5415 6.47534L18.6031 6.36987C18.6592 6.27382 18.6446 6.17316 18.6236 6.10522C18.6025 6.03491 18.5415 5.90112 18.3775 5.80737L15.5445 4.17163C15.3195 4.04272 15.0447 4.08276 14.9439 4.25854L14.8833 4.36401C14.8272 4.46003 14.8408 4.56075 14.8618 4.62866C14.8829 4.69895 14.944 4.83277 15.1079 4.92651C15.6072 5.21479 15.7814 5.85464 15.4908 6.3562L13.4185 9.94409C13.2803 10.1854 13.0507 10.3587 12.7837 10.4314C12.5142 10.5041 12.2302 10.4666 11.9888 10.3259C11.2388 9.89243 10.3149 10.0828 9.92825 10.7507L5.87357 17.533C7.27844 17.541 8.03656 18.1574 8.58841 18.6091C9.05695 18.991 9.34046 19.2204 10.0386 19.2205C10.7956 19.2205 11.1007 18.949 11.5601 18.5388C12.0335 18.1147 12.6848 17.5331 13.7837 17.533C15.2415 17.533 16.1421 18.171 16.7984 18.6375C17.3396 19.0217 17.642 19.2205 18.106 19.2205C19.2263 19.2205 19.9952 19.0029 21.4038 18.2927C21.9194 18.0326 22.5476 18.239 22.8101 18.7546C23.0723 19.2702 22.8637 19.8984 22.3482 20.1609C20.867 20.9085 19.7536 21.3132 18.106 21.3132C16.9552 21.3132 16.1954 20.7767 15.5884 20.3455C15.0238 19.9448 14.5762 19.6287 13.7867 19.6287C13.5148 19.6287 13.3761 19.725 12.9566 20.1023C12.4152 20.5851 11.5973 21.316 10.0415 21.3162C8.59778 21.3162 7.8306 20.6902 7.2681 20.2332C6.80655 19.8559 6.52538 19.6287 5.84818 19.6287C4.4669 19.6287 4.06748 20.5288 4.02689 20.6335C3.81596 21.1632 3.21846 21.4382 2.68411 21.239C2.14974 21.0398 1.87064 20.4603 2.05814 19.9236C2.13694 19.6957 2.27214 19.428 2.46732 19.155L8.1265 9.68628C8.90934 8.3317 10.5338 7.72965 12.0572 8.11401L13.2613 6.02808C13.0831 5.79136 12.947 5.52339 12.8579 5.23511C12.6566 4.57903 12.7315 3.89666 13.0689 3.31323L13.1304 3.20776Z" fill="white"/>
</svg>
